<svg xmlns="http://www.w3.org/2000/svg" width="39.85" height="35" viewBox="0 0 39.85 35">
  <metadata><?xpacket begin="﻿" id="W5M0MpCehiHzreSzNTczkc9d"?>
<x:xmpmeta xmlns:x="adobe:ns:meta/" x:xmptk="Adobe XMP Core 5.6-c142 79.160924, 2017/07/13-01:06:39        ">
   <rdf:RDF xmlns:rdf="http://www.w3.org/1999/02/22-rdf-syntax-ns#">
      <rdf:Description rdf:about=""/>
   </rdf:RDF>
</x:xmpmeta>
                                                                                                    
                                                                                                    
                                                                                                    
                                                                                                    
                                                                                                    
                                                                                                    
                                                                                                    
                                                                                                    
                                                                                                    
                                                                                                    
                                                                                                    
                                                                                                    
                                                                                                    
                                                                                                    
                                                                                                    
                                                                                                    
                                                                                                    
                                                                                                    
                                                                                                    
                                                                                                    
                           
<?xpacket end="w"?></metadata>
<defs>
    <style>
      .cls-1 {
        fill: #a3acb5;
        fill-rule: evenodd;
      }
    </style>
  </defs>
  <path class="cls-1" d="M1676.81,58.288l-1.58-5.5a0.767,0.767,0,0,0-.18-0.3,9.234,9.234,0,0,0-6.43-6.066l-0.45-.075a1.881,1.881,0,0,0-1.92.6c-1.66,1.885-3.76,2.035-5.98,2.035s-4.32-.15-5.98-2.035a1.871,1.871,0,0,0-1.91-.6l-0.46.112a9.324,9.324,0,0,0-5.48,4.031h-4.74a0.083,0.083,0,0,1-.08-0.036,1.084,1.084,0,0,1-.03-0.152l0.97-3.5c0.87-2.75,2.52-3.58,5.76-4.407a0.683,0.683,0,0,0,.33-0.189,4.473,4.473,0,0,0,.87.565,0.55,0.55,0,0,0,.34.075,0.785,0.785,0,0,0,.67-0.413,0.756,0.756,0,0,0-.33-1.017c-1.73-.9-2.97-3.466-2.97-6.1a4.266,4.266,0,0,1,4.24-4.256,4.757,4.757,0,0,1,1.28.189,8.7,8.7,0,0,0-.64,3.277c0,6.443,3.87,11.866,8.46,11.866,4.51,0,8.5-5.536,8.5-11.866a8.478,8.478,0,0,0-15.6-4.635,6.041,6.041,0,0,0-2-.338,5.753,5.753,0,0,0-4.85,2.712,0.762,0.762,0,0,0-.22-0.152,3.631,3.631,0,0,0-1.77-.413,3.741,3.741,0,0,0-3.8,3.766,6.466,6.466,0,0,0,.87,3.241c-1.73.451-3.27,1.13-3.99,3.427l-0.6,2.186a1.268,1.268,0,0,0,1.24,1.619h2.9c-0.04.152-.11,0.3-0.15,0.451l-0.98,3.543A1.662,1.662,0,0,0,1641.7,52h3.98a7.986,7.986,0,0,0-.26.79l-1.58,5.539a2.143,2.143,0,0,0,.38,1.844,2.084,2.084,0,0,0,1.65.83h28.91a2.06,2.06,0,0,0,1.66-.83A2.1,2.1,0,0,0,1676.81,58.288Zm-22.44-26.939a0.485,0.485,0,0,0,.11-0.149c0.04-.038.04-0.114,0.08-0.151a6.851,6.851,0,0,1,6.01-3.541,7.023,7.023,0,0,1,6.66,4.9,3.548,3.548,0,0,1-3.54-1.395,0.73,0.73,0,0,0-1.05-.151,0.6,0.6,0,0,0-.26.378c-0.04.037-.04,0.076-0.08,0.111-1.05,2.149-4.59,3.053-8.61,2.26A7.753,7.753,0,0,1,1654.37,31.349Zm2.1,4.032c3.01,0,5.49-.942,6.77-2.713a5.026,5.026,0,0,0,3.35,1.282,4.058,4.058,0,0,0,.94-0.112,4.565,4.565,0,0,1,.03.64c0,5.538-3.27,10.4-6.99,10.4-3.57,0-6.69-4.481-6.95-9.756A15.167,15.167,0,0,0,1656.47,35.381Zm-17.82,9.041,0.53-1.882c0.45-1.546,1.39-2,3.27-2.45a0.729,0.729,0,0,0,.3-0.15,3.054,3.054,0,0,0,.57.378,0.539,0.539,0,0,0,.33.074,0.788,0.788,0,0,0,.68-0.415,0.774,0.774,0,0,0-.3-1.018,4.076,4.076,0,0,1-1.69-3.5,2.277,2.277,0,0,1,2.29-2.3,2.1,2.1,0,0,1,1.09.265,0.883,0.883,0,0,0,.3.075,5.641,5.641,0,0,0-.3,1.807,9.694,9.694,0,0,0,1.84,5.728c-2.25.566-4.24,1.318-5.56,3.389h-3.35Zm36.62,14.846a0.644,0.644,0,0,1-.49.224h-28.91a0.6,0.6,0,0,1-.6-0.753l1.58-5.5a7.684,7.684,0,0,1,5.45-5.313l0.45-.113a0.5,0.5,0,0,1,.42.151c2.06,2.375,4.62,2.562,7.1,2.562s5.04-.187,7.11-2.562a0.477,0.477,0,0,1,.45-0.151l0.45,0.113a7.754,7.754,0,0,1,5.45,5.313l0.68,2.335a0.512,0.512,0,0,0,.15.264l0.82,2.864A0.747,0.747,0,0,1,1675.27,59.268Z" transform="translate(-1637.06 -26)"/>
</svg>
