<svg xmlns="http://www.w3.org/2000/svg" xmlns:xlink="http://www.w3.org/1999/xlink" width="48" height="75" viewBox="0 0 48 75"><defs><path id="wb0ja" d="M1295.226 2087.498v1.405c0 .606-.497 1.096-1.109 1.096h-18.946c-.612 0-1.109-.49-1.109-1.096 0-.605.497-1.096 1.109-1.096h17.837v-.31c0-3.3-2.715-5.987-6.054-5.987h-16.22c-3.623 0-6.57-2.917-6.57-6.5 0-.166.006-.333.02-.497a7.355 7.355 0 0 0-2.967 5.9c0 4.077 3.353 7.394 7.475 7.394h1.963c.612 0 1.108.49 1.108 1.096 0 .606-.496 1.096-1.108 1.096h-1.963c-5.344 0-9.692-4.3-9.692-9.587 0-4.133 2.664-7.789 6.628-9.095a1.116 1.116 0 0 1 1.206.343c.292.35.335.842.11 1.237a4.268 4.268 0 0 0-.563 2.113c0 2.374 1.953 4.306 4.353 4.306h16.22c4.561 0 8.272 3.67 8.272 8.182zm-3.529-39.064c-1.393 3.788-5.022 6.145-8.878 6.145a9.476 9.476 0 0 1-3.219-.564c-4.89-1.761-7.42-7.129-5.64-11.967a9.313 9.313 0 0 1 4.88-5.269 9.472 9.472 0 0 1 7.217-.311 9.493 9.493 0 0 1 3.719 2.45c.414.447.384 1.142-.067 1.551-.45.41-1.152.38-1.566-.067a7.139 7.139 0 0 0-2.845-1.873 7.246 7.246 0 0 0-5.522.238 7.123 7.123 0 0 0-3.734 4.031 7.027 7.027 0 0 0 .242 5.463 7.145 7.145 0 0 0 4.074 3.693c3.741 1.348 7.894-.567 9.256-4.269a7.064 7.064 0 0 0 .31-3.78c-.116-.594.278-1.169.88-1.282a1.109 1.109 0 0 1 1.297.87 9.23 9.23 0 0 1-.404 4.941zm-3.19-2.878l-1.124 3.056c-.1.273-.307.496-.573.62a1.122 1.122 0 0 1-.848.035l-1.489-.536-.542 1.474a1.11 1.11 0 0 1-1.42.654l-3.09-1.111a1.108 1.108 0 0 1-.625-.567 1.087 1.087 0 0 1-.037-.839l.542-1.473-1.49-.536a1.108 1.108 0 0 1-.625-.567 1.084 1.084 0 0 1-.037-.838l1.124-3.057c.21-.57.846-.861 1.421-.655l1.49.536.541-1.473a1.116 1.116 0 0 1 1.42-.655l3.09 1.112c.576.208.872.837.663 1.405l-.542 1.474 1.489.536c.575.207.872.835.663 1.405zm-2.462.28l-1.489-.535a1.094 1.094 0 0 1-.662-1.406l.542-1.473-1.007-.363-.542 1.474c-.1.273-.306.495-.573.619a1.128 1.128 0 0 1-.847.036l-1.49-.537-.366.996 1.49.537c.575.206.872.836.662 1.405l-.542 1.473 1.006.362.542-1.472a1.11 1.11 0 0 1 1.42-.656l1.49.536zm20.746-19.055l-2.187 5.944-.002.005-.015.033a.97.97 0 0 1-.033.078l-15.49 30.593c-1.047 2.07-3.165 3.295-5.39 3.295a6.089 6.089 0 0 1-2.061-.361l-.692-.25-2.466 6.702a1.11 1.11 0 0 1-1.42.654l-8.113-2.92a1.104 1.104 0 0 1-.626-.567 1.084 1.084 0 0 1-.037-.838l2.466-6.702-.692-.25c-2.877-1.035-4.512-4.038-3.802-6.984l5.306-22.043c.142-.59.74-.954 1.336-.813.595.141.963.732.821 1.32l-5.307 22.044c-.448 1.863.585 3.76 2.404 4.416l1.733.624v.001l8.113 2.92 1.734.625c1.819.654 3.844-.143 4.711-1.855l14.932-29.492-5.586-2.012-20.315-7.314-1.37 5.69c-.142.59-.74.953-1.336.812a1.096 1.096 0 0 1-.821-1.32l1.658-6.888.003-.008c.006-.025.014-.05.022-.075l.01-.032.002-.006 2.187-5.945c.21-.568.845-.862 1.42-.655l4.706 1.694h.001l.002.001 23.531 8.473c.575.207.872.836.663 1.406zm-27.954 38.587l-6.03-2.171-2.086 5.67 6.03 2.172zm25.492-38.308l-2.624-.944-.714 1.941a1.11 1.11 0 0 1-1.421.655 1.092 1.092 0 0 1-.663-1.404l.715-1.942-2.624-.945-.714 1.943a1.109 1.109 0 0 1-1.42.655 1.094 1.094 0 0 1-.663-1.406l.714-1.942-2.623-.944-.715 1.942a1.11 1.11 0 0 1-1.42.655 1.092 1.092 0 0 1-.663-1.405l.715-1.942-2.624-.944-.714 1.941a1.109 1.109 0 0 1-1.42.655 1.094 1.094 0 0 1-.663-1.406l.714-1.941-2.623-.944-.715 1.941a1.11 1.11 0 0 1-1.42.655 1.093 1.093 0 0 1-.663-1.404l.715-1.942-2.624-.945-1.429 3.883 13.079 4.71 13.078 4.708z"/></defs><g><g transform="translate(-1259 -2015)"><use fill="#ff6b00" xlink:href="#wb0ja"/></g></g></svg>