<svg xmlns="http://www.w3.org/2000/svg" width="38.44" height="38.438" viewBox="0 0 38.44 38.438">
  <metadata><?xpacket begin="﻿" id="W5M0MpCehiHzreSzNTczkc9d"?>
<x:xmpmeta xmlns:x="adobe:ns:meta/" x:xmptk="Adobe XMP Core 5.6-c142 79.160924, 2017/07/13-01:06:39        ">
   <rdf:RDF xmlns:rdf="http://www.w3.org/1999/02/22-rdf-syntax-ns#">
      <rdf:Description rdf:about=""/>
   </rdf:RDF>
</x:xmpmeta>                       
<?xpacket end="w"?></metadata>
<defs>
    <style>
      .cls-1 {
        fill: #a3acb5;
        fill-rule: evenodd;
      }
    </style>
  </defs>
  <path id="Forma_1_copy" data-name="Forma 1 copy" class="cls-1" d="M1213.29,49.59h0a11.165,11.165,0,0,0,2.77-1.363,11.521,11.521,0,1,0-12,.5h0.01a11.246,11.246,0,0,0,2.87,1.121h0.01a11.154,11.154,0,0,0,2.7.328A11.372,11.372,0,0,0,1213.29,49.59Zm-6.04-.982a9.848,9.848,0,0,1-2.56-1,10.246,10.246,0,1,1,10.66-.447,10,10,0,0,1-2.46,1.211h-0.01a10.247,10.247,0,0,1-5.63.235h0Zm15.98-13.7a14.086,14.086,0,1,0-21.17,15.608,8.957,8.957,0,0,0,15.98,8.02A12.158,12.158,0,1,0,1223.23,34.9Zm-26.39,3.745a12.81,12.81,0,0,1,25.26-3.014,11.79,11.79,0,0,1,.36,3.014,12.793,12.793,0,0,1-5.45,10.483,12.53,12.53,0,0,1-2.12,1.21,12.674,12.674,0,0,1-2.64.853c-0.29.06-.59,0.109-0.89,0.148l-0.03,0a11.907,11.907,0,0,1-1.68.113A12.813,12.813,0,0,1,1196.84,38.649Zm13.45,23.058a7.656,7.656,0,0,1-7.68-7.638,7.516,7.516,0,0,1,.57-2.922,13.511,13.511,0,0,0,6.47,1.6,13.958,13.958,0,0,0,1.43-.081,12.225,12.225,0,0,0,4.02,4.455c0.25,0.165.5,0.318,0.76,0.462l0.2,0.112c0.23,0.12.45,0.236,0.68,0.343,0.03,0.012.06,0.03,0.09,0.042A7.648,7.648,0,0,1,1210.29,61.708Zm11.53-3.843h0a10.676,10.676,0,0,1-3.86-.709,10.408,10.408,0,0,1-2.15-1.105,11.151,11.151,0,0,1-.9-0.677c-0.05-.042-0.1-0.079-0.15-0.122-0.27-.233-0.53-0.48-0.78-0.737-0.05-.052-0.09-0.1-0.14-0.155a10.138,10.138,0,0,1-.71-0.837c-0.02-.027-0.04-0.057-0.06-0.083-0.21-.288-0.41-0.584-0.59-0.89-0.02-.029-0.03-0.056-0.05-0.083l0.05-.01c0.06-.012.12-0.029,0.18-0.041,0.24-.052.47-0.11,0.71-0.173l0.29-.084c0.21-.06.42-0.131,0.62-0.2,0.09-.032.18-0.061,0.27-0.094,0.29-.109.58-0.221,0.86-0.348a13.941,13.941,0,0,0,2.34-1.335h0a14.062,14.062,0,0,0,5.78-13.942A10.883,10.883,0,0,1,1221.82,57.864Zm-11.53,1.282a5.131,5.131,0,0,1-5.12-5.125h-1.28a6.409,6.409,0,0,0,6.4,6.406,6.318,6.318,0,0,0,2.85-.669l-0.57-1.147A5.083,5.083,0,0,1,1210.29,59.146Zm10.89-5.125h1.28v2.564h-1.28V54.021Zm-3.61,1.6-1.11-.642,1.28-2.219,1.11,0.642Zm8.5,0-1.28-2.22,1.11-.64,1.28,2.22Zm3.75-3.283-2.21-1.281,0.64-1.109,2.21,1.28Zm-0.95-6h2.56v1.282h-2.56V46.336Zm0.95-4.716,0.64,1.108-2.22,1.282L1227.6,42.9Zm-3.92-.424-1.11-.64,1.28-2.22,1.11,0.64Zm-13.04,3.86a0.643,0.643,0,0,0-.64-0.642h-1.93V32.246a0.638,0.638,0,0,0-1.09-.454l-2.88,2.882a0.639,0.639,0,0,0,.9.907l1.79-1.789V44.415h-1.92a0.64,0.64,0,1,0,0,1.279h5.13A0.642,0.642,0,0,0,1212.86,45.056Z" transform="translate(-1195.56 -24.563)"/>
</svg>
