<svg xmlns="http://www.w3.org/2000/svg" xmlns:xlink="http://www.w3.org/1999/xlink" width="59" height="63" viewBox="0 0 59 63"><defs><path id="sn7pa" d="M1669.63 2041.638c0 .675-.546 1.223-1.218 1.223-.674 0-1.22-.548-1.22-1.223 0-.676.546-1.224 1.22-1.224.672 0 1.219.548 1.219 1.224zm10.974 22.876c0 .675-.546 1.223-1.22 1.223h-3.657v3.67c0 .675-.546 1.223-1.22 1.223a1.22 1.22 0 0 1-1.219-1.223v-3.67h-3.657c-.673 0-1.22-.548-1.22-1.223 0-.676.547-1.224 1.22-1.224h3.657v-3.67c0-.675.546-1.224 1.22-1.224.673 0 1.219.549 1.219 1.224v3.67h3.657c.674 0 1.22.548 1.22 1.224zm28.117 13.246l-14.782 8.563c-4.62 2.676-10.515 1.139-13.249-3.459h-19.594c-3.361 0-6.096-2.745-6.096-6.118v-23.69c0-1.315.433-2.617 1.219-3.67l6.096-8.157v-3.472a3.675 3.675 0 0 1-2.438-3.46v-5.627c0-2.024 1.64-3.67 3.658-3.67h21.946a3.669 3.669 0 0 1 3.657 3.67v5.627a3.673 3.673 0 0 1-2.438 3.46v3.472l6.096 8.156a6.177 6.177 0 0 1 1.22 3.67v10.623l4.952-2.869c4.669-2.705 10.628-1.102 13.323 3.582 2.709 4.71 1.058 10.687-3.57 13.369zm-46.405-49.09v5.627c0 .675.546 1.223 1.219 1.223h21.945c.673 0 1.22-.548 1.22-1.223v-5.627c0-.675-.547-1.224-1.22-1.224h-21.945c-.673 0-1.22.55-1.22 1.224zm-4.852 23.977h34.087a3.71 3.71 0 0 0-.706-1.795l-5.974-7.99h-11.583c-.673 0-1.219-.55-1.219-1.224 0-.676.546-1.224 1.22-1.224h10.972v-2.447h-19.507v3.67c0 .264-.086.522-.244.735l-6.34 8.48a3.706 3.706 0 0 0-.706 1.795zm3.632 27.77h18.552a9.836 9.836 0 0 1-.058-4.906h-22.151v1.235c0 2.024 1.64 3.67 3.657 3.67zm23.09-11.045l7.39-4.281v-9.997h-34.137v17.983h23.107a9.705 9.705 0 0 1 3.64-3.705zm15.152 10.998l-7.315-12.713-6.618 3.835c-3.477 2.014-4.708 6.48-2.677 10.027a7.298 7.298 0 0 0 9.992 2.685zm10.841-14.756a7.297 7.297 0 0 0-9.992-2.685l-6.052 3.505 7.315 12.713 6.052-3.507c3.473-2.011 4.708-6.494 2.677-10.026z"/></defs><g><g transform="translate(-1655 -2025)"><use fill="#ff6b00" xlink:href="#sn7pa"/></g></g></svg>