<svg xmlns="http://www.w3.org/2000/svg" width="26" height="41" viewBox="0 0 26 41">
  <metadata><?xpacket begin="﻿" id="W5M0MpCehiHzreSzNTczkc9d"?>
<x:xmpmeta xmlns:x="adobe:ns:meta/" x:xmptk="Adobe XMP Core 5.6-c142 79.160924, 2017/07/13-01:06:39        ">
   <rdf:RDF xmlns:rdf="http://www.w3.org/1999/02/22-rdf-syntax-ns#">
      <rdf:Description rdf:about=""/>
   </rdf:RDF>
</x:xmpmeta>                       
<?xpacket end="w"?></metadata>
<defs>
    <style>
      .cls-1 {
        fill: #a3acb5;
        fill-rule: evenodd;
      }
    </style>
  </defs>
  <path id="Forma_1_copy_2" data-name="Forma 1 copy 2" class="cls-1" d="M1467,49.515l-8.8-3.014a0.606,0.606,0,0,0-.4,0l-6.33,2.166a0.6,0.6,0,0,0-.38.764,0.616,0.616,0,0,0,.78.37l6.13-2.1,8.16,2.8a17.243,17.243,0,0,1-1.12,4.594,17.776,17.776,0,0,1-7.04,8.595,17.776,17.776,0,0,1-7.04-8.595,16.416,16.416,0,0,1-1.15-5.026,0.608,0.608,0,0,0-.61-0.585h-0.02a0.6,0.6,0,0,0-.59.612,17.267,17.267,0,0,0,1.21,5.382,19.013,19.013,0,0,0,7.88,9.432,0.607,0.607,0,0,0,.64,0,19.011,19.011,0,0,0,7.88-9.433,17.262,17.262,0,0,0,1.21-5.381A0.6,0.6,0,0,0,1467,49.515Zm-5.03,3.391a0.615,0.615,0,0,0-.86,0l-3.78,3.72-2.25-2.212a0.613,0.613,0,0,0-.86,0,0.591,0.591,0,0,0,0,.85l2.68,2.637a0.612,0.612,0,0,0,.86,0l4.21-4.145A0.592,0.592,0,0,0,1461.97,52.906Zm6.89-8.546-4.94-2.432a1.32,1.32,0,0,1-.75-1.184V38.414a6.969,6.969,0,0,0,1.96-4.826V29.737c0-3.165-3.2-5.737-7.13-5.737s-7.13,2.572-7.13,5.737v3.851a6.97,6.97,0,0,0,1.96,4.826v2.329a1.32,1.32,0,0,1-.75,1.184l-4.94,2.432a3.784,3.784,0,0,0-2.14,3.408v3.794a1.9,1.9,0,0,0,1.91,1.884,0.6,0.6,0,1,0,0-1.2,0.688,0.688,0,0,1-.69-0.684V47.768a2.585,2.585,0,0,1,1.47-2.334L1452.63,43a2.516,2.516,0,0,0,1.42-2.257V39.429c0.12,0.083.25,0.162,0.38,0.236a0.62,0.62,0,0,0,.84-0.219,0.607,0.607,0,0,0-.23-0.821,5.825,5.825,0,0,1-2.95-5.039v-3.85c0-2.5,2.65-4.535,5.91-4.535s5.91,2.034,5.91,4.535v3.851a5.829,5.829,0,0,1-2.95,5.04,0.589,0.589,0,0,0-.23.82,0.62,0.62,0,0,0,.84.219c0.13-.075.26-0.154,0.38-0.237v1.314A2.516,2.516,0,0,0,1463.37,43l4.94,2.434a2.585,2.585,0,0,1,1.47,2.334v3.794a0.688,0.688,0,0,1-.69.684,0.6,0.6,0,1,0,0,1.2,1.9,1.9,0,0,0,1.91-1.884V47.768A3.784,3.784,0,0,0,1468.86,44.36Z" transform="translate(-1445 -24)"/>
</svg>
