<svg xmlns="http://www.w3.org/2000/svg" xmlns:xlink="http://www.w3.org/1999/xlink" width="70" height="66" viewBox="0 0 70 66"><defs><path id="kr1ra" d="M875.494 2020.612a1.292 1.292 0 0 1 1.105-1.457c.712-.1 1.369.392 1.47 1.096l2.057 14.416a1.289 1.289 0 0 1-1.288 1.468 1.296 1.296 0 0 1-1.285-1.107zm33.247 3.921a1.28 1.28 0 0 1 0-1.82 1.307 1.307 0 0 1 1.838 0l1.018 1.007 1.018-1.008a1.307 1.307 0 0 1 1.839 0 1.28 1.28 0 0 1 0 1.821l-1.018 1.009 1.017 1.008a1.28 1.28 0 0 1 0 1.82 1.301 1.301 0 0 1-.92.378c-.332 0-.664-.125-.918-.377l-1.018-1.008-1.017 1.008a1.31 1.31 0 0 1-1.839 0 1.279 1.279 0 0 1 0-1.821l1.018-1.008zm-48.174 2.898a1.279 1.279 0 0 1 .241-1.805 1.307 1.307 0 0 1 1.823.239l11.475 14.837a1.28 1.28 0 0 1-.242 1.805c-.236.18-.514.266-.79.266a1.3 1.3 0 0 1-1.032-.506zm-10.099 1.005a1.309 1.309 0 0 1 1.823-.237l.43.328c.57.433.676 1.241.24 1.805-.257.33-.643.504-1.033.504-.276 0-.555-.086-.79-.267l-.43-.328a1.279 1.279 0 0 1-.24-1.805zm12.434 19.509a1.29 1.29 0 0 1 1.118 1.445 1.296 1.296 0 0 1-1.46 1.108l-13.292-1.744a1.29 1.29 0 0 1-1.118-1.446 1.296 1.296 0 0 1 1.459-1.107zm-8.196-16.282a1.308 1.308 0 0 1 1.822-.237l12.636 9.62a1.28 1.28 0 0 1 .238 1.805c-.256.33-.641.503-1.032.503-.276 0-.554-.087-.79-.267l-12.636-9.619a1.28 1.28 0 0 1-.238-1.805zm27.08 3.144l1.992-14.541a1.296 1.296 0 0 1 1.462-1.102 1.29 1.29 0 0 1 1.114 1.448l-1.991 14.541a1.296 1.296 0 0 1-1.463 1.103 1.29 1.29 0 0 1-1.113-1.449zm31.864 21.093a1.297 1.297 0 0 1-1.46 1.108l-17.827-2.34a1.29 1.29 0 0 1-1.118-1.444c.094-.706.748-1.2 1.46-1.108l17.827 2.338a1.29 1.29 0 0 1 1.118 1.446zm-1.114-7.1l-13.376 1.735a1.296 1.296 0 0 1-1.458-1.11 1.29 1.29 0 0 1 1.121-1.443l13.376-1.734a1.297 1.297 0 0 1 1.457 1.108 1.29 1.29 0 0 1-1.12 1.445zm-5.412-17.1a1.28 1.28 0 0 1-.241 1.806l-12.585 9.552c-.236.179-.514.266-.79.266-.39 0-.776-.174-1.032-.506a1.28 1.28 0 0 1 .241-1.805l12.585-9.551a1.309 1.309 0 0 1 1.822.239zm-5.537-8.89l.115-.148a1.307 1.307 0 0 1 1.823-.236 1.28 1.28 0 0 1 .238 1.806l-.115.147a1.3 1.3 0 0 1-1.032.503c-.276 0-.555-.087-.791-.267a1.279 1.279 0 0 1-.238-1.805zm2.314-2.985l.122-.157a1.31 1.31 0 0 1 1.822-.235 1.28 1.28 0 0 1 .238 1.807l-.122.156a1.303 1.303 0 0 1-1.822.234 1.28 1.28 0 0 1-.238-1.805zm-16.124 20.802l11.43-14.736a1.31 1.31 0 0 1 1.824-.236 1.28 1.28 0 0 1 .238 1.806l-11.43 14.735c-.257.329-.642.502-1.032.502-.277 0-.555-.086-.791-.266a1.279 1.279 0 0 1-.239-1.805zm-40.084-13.017c-.276 0-.555-.087-.79-.266l-.227-.173a1.278 1.278 0 0 1-.239-1.804 1.307 1.307 0 0 1 1.823-.237l.226.171a1.28 1.28 0 0 1 .239 1.806c-.256.33-.642.503-1.032.503zm41.499 34.017a1.284 1.284 0 0 1-.515 1.363 1.31 1.31 0 0 1-1.468.017l-6.09-4.022-6.562 4.044a1.312 1.312 0 0 1-1.467-.063 1.283 1.283 0 0 1-.471-1.38l1.98-6.977-5.911-4.934c-.41-.343-.566-.9-.392-1.403a1.297 1.297 0 0 1 1.177-.869l7.313-.291 2.91-7.094a1.305 1.305 0 0 1 2.423.038l2.54 6.8 7.709.549a1.3 1.3 0 0 1 1.149.906 1.282 1.282 0 0 1-.437 1.39l-5.743 4.492zm-4.123-8.94l3.771-2.951-5.203-.372a1.298 1.298 0 0 1-1.126-.837l-1.668-4.465-1.964 4.788a1.301 1.301 0 0 1-1.152.802l-4.803.191 3.99 3.33c.39.326.552.847.414 1.333l-1.3 4.585 4.43-2.731a1.313 1.313 0 0 1 1.407.022l4 2.642-1.253-5.018a1.281 1.281 0 0 1 .457-1.32zm21.693 30.242a1.28 1.28 0 0 1-.24 1.805c-.236.18-.515.266-.79.266-.391 0-.777-.174-1.033-.504l-.188-.243a1.28 1.28 0 0 1 .241-1.806 1.309 1.309 0 0 1 1.822.24zm-58.971-40.412a1.28 1.28 0 0 1 0-1.822l1.017-1.007-1.018-1.008a1.28 1.28 0 0 1 0-1.822 1.31 1.31 0 0 1 1.839 0l1.018 1.009 1.017-1.01a1.31 1.31 0 0 1 1.839 0 1.28 1.28 0 0 1 0 1.823l-1.018 1.008 1.018 1.007a1.28 1.28 0 0 1 0 1.822 1.302 1.302 0 0 1-.92.377c-.332 0-.665-.125-.919-.377l-1.017-1.007-1.018 1.007a1.31 1.31 0 0 1-1.838 0zm56.042 38.74a1.306 1.306 0 0 1-1.822-.24l-.188-.242a1.28 1.28 0 0 1 .24-1.805 1.308 1.308 0 0 1 1.823.238l.188.243a1.28 1.28 0 0 1-.24 1.805zm11.66-15.694a1.279 1.279 0 0 1 0 1.82 1.3 1.3 0 0 1-.92.378 1.3 1.3 0 0 1-.92-.378l-1.017-1.008-1.017 1.008a1.308 1.308 0 0 1-1.839 0 1.278 1.278 0 0 1 0-1.82l1.018-1.009-1.018-1.008a1.28 1.28 0 0 1 0-1.821 1.309 1.309 0 0 1 1.838 0l1.018 1.009 1.018-1.008a1.308 1.308 0 0 1 1.838 0 1.278 1.278 0 0 1 0 1.82l-1.018 1.008zm-8.399 5.983a1.3 1.3 0 0 1-1.032.504c-.276 0-.555-.088-.79-.267l-12.114-9.222a1.279 1.279 0 0 1-.238-1.805 1.307 1.307 0 0 1 1.823-.237l12.112 9.222c.57.433.676 1.241.24 1.805zm-5.861 4.232a1.279 1.279 0 0 1-.242 1.804c-.236.18-.514.266-.79.266a1.3 1.3 0 0 1-1.032-.505l-6.463-8.355a1.28 1.28 0 0 1 .242-1.806 1.308 1.308 0 0 1 1.822.24zm-32.547-13.281l-12.188 9.25c-.236.179-.514.265-.79.265-.39 0-.777-.173-1.032-.504a1.28 1.28 0 0 1 .24-1.805l12.19-9.251a1.308 1.308 0 0 1 1.821.239 1.28 1.28 0 0 1-.24 1.806zm-12.972 17.072l-1.018 1.008 1.018 1.008a1.28 1.28 0 0 1 0 1.822c-.254.25-.586.377-.919.377-.333 0-.665-.126-.92-.377l-1.017-1.009-1.018 1.009a1.31 1.31 0 0 1-1.838 0 1.28 1.28 0 0 1 0-1.822l1.018-1.008-1.018-1.008a1.28 1.28 0 0 1 0-1.821 1.308 1.308 0 0 1 1.839 0l1.017 1.008 1.018-1.008a1.308 1.308 0 0 1 1.839 0 1.279 1.279 0 0 1 0 1.821zm11.597-24.905l-17.71 2.297a1.296 1.296 0 0 1-1.458-1.11 1.29 1.29 0 0 1 1.12-1.443l17.71-2.297a1.3 1.3 0 0 1 1.458 1.11 1.29 1.29 0 0 1-1.12 1.443zm19.043 28.199a1.289 1.289 0 0 1-1.29 1.46c-.64 0-1.198-.469-1.286-1.115l-1.991-14.54a1.29 1.29 0 0 1 1.113-1.45 1.299 1.299 0 0 1 1.463 1.103zm-6.228-14.055l-2.058 14.416a1.296 1.296 0 0 1-1.469 1.094 1.29 1.29 0 0 1-1.105-1.455l2.058-14.416c.101-.704.76-1.195 1.47-1.095.71.1 1.205.752 1.104 1.456zm-11.06.163l-6.474 8.346a1.304 1.304 0 0 1-1.823.236 1.28 1.28 0 0 1-.238-1.805l6.475-8.347a1.309 1.309 0 0 1 1.822-.237 1.28 1.28 0 0 1 .239 1.807z"/></defs><g><g transform="translate(-846 -2019)"><use fill="#ff6b00" xlink:href="#kr1ra"/></g></g></svg>