<svg xmlns="http://www.w3.org/2000/svg" xmlns:xlink="http://www.w3.org/1999/xlink" width="55" height="37" viewBox="0 0 55 37"><defs><path id="fg3qa" d="M1302 1495.844a1.15 1.15 0 0 1-1.146 1.155h-2.253l-.039.001h-50.416a1.15 1.15 0 0 1-1.146-1.156c0-.64.513-1.157 1.146-1.157h1.146v-12.718c0-.64.513-1.156 1.145-1.156h6.875a1.15 1.15 0 0 1 1.146 1.156v12.718h4.584v-24.281c0-.638.513-1.156 1.145-1.156h6.875c.633 0 1.146.518 1.146 1.156v24.281h4.584v-19.656c0-.638.513-1.156 1.145-1.156h6.875c.633 0 1.146.517 1.146 1.156v19.656h4.584v-33.53c0-.64.513-1.157 1.145-1.157h6.875c.633 0 1.146.518 1.146 1.156v33.531h1.146c.633 0 1.146.518 1.146 1.157zm-45.833-12.72h-4.584v11.563h4.584zm13.75-11.562h-4.584v23.125h4.584zm13.75 4.626h-4.584v18.5h4.584zm13.75-13.876h-4.584v32.375h4.584z"/><linearGradient id="fg3qb" x1="1302" x2="1247" y1="1479" y2="1478" gradientUnits="userSpaceOnUse"><stop offset="0" stop-color="#ff6b00"/><stop offset="1" stop-color="#a6c93a"/></linearGradient></defs><g><g transform="translate(-1247 -1460)"><use fill="#a8ca3f" xlink:href="#fg3qa"/><use fill="url(#fg3qb)" xlink:href="#fg3qa"/></g></g></svg>